 <svg version="1.0" xmlns="http://www.w3.org/2000/svg" width="700.000000pt" height="173.000000pt" viewBox="0 0 700.000000 173.000000" preserveAspectRatio="xMidYMid meet">
<metadata>
Created by potrace 1.12, written by Peter Selinger 2001-2015
</metadata>
<g transform="translate(0.000000,173.000000) scale(0.100000,-0.100000)" fill="#000000" stroke="none">
<path d="M4712 1283 c-37 -5 -45 -19 -60 -101 l-9 -50 39 -4 c35 -3 39 -1 44
22 10 46 13 50 39 50 40 0 65 -18 65 -45 0 -22 4 -25 40 -25 37 0 41 3 47 30
3 17 9 30 13 30 4 0 10 10 13 21 6 21 -12 49 -31 49 -6 0 -12 4 -14 9 -3 9
-51 15 -101 12 -22 -1 -29 -7 -34 -31 -7 -35 -20 -47 -36 -31 -8 8 -8 11 2 11
7 0 11 6 8 13 -2 6 0 20 5 30 5 9 7 16 6 15 -2 0 -18 -3 -36 -5z m108 -53 c0
-5 -4 -10 -10 -10 -5 0 -10 5 -10 10 0 6 5 10 10 10 6 0 10 -4 10 -10z"></path>
<path d="M3717 1273 c-15 -14 -6 -59 13 -71 11 -7 20 -20 20 -30 0 -10 2 -21
6 -24 10 -11 71 9 92 30 20 20 20 21 1 38 -10 9 -19 22 -19 29 0 21 -96 45
-113 28z m28 -33 c-3 -5 -12 -10 -18 -10 -7 0 -6 4 3 10 19 12 23 12 15 0z"></path>
<path d="M5035 1268 c-4 -12 -32 -129 -77 -323 -11 -49 -27 -110 -35 -134 -10
-34 -11 -46 -2 -52 7 -4 9 -14 6 -23 -7 -19 5 -28 27 -20 23 9 44 63 41 108
-1 21 4 50 11 64 9 18 10 30 3 38 -5 7 -6 14 -2 16 16 6 42 69 36 85 -5 12 -2
15 9 11 10 -4 19 2 27 19 13 28 5 46 -9 23 -5 -8 -12 -11 -16 -7 -11 10 15 87
29 87 8 0 13 21 14 60 l1 60 -29 0 c-16 0 -32 -6 -34 -12z"></path>
<path d="M5127 1243 c-7 -42 1 -113 13 -113 10 0 16 62 12 113 -4 48 -18 48
-25 0z"></path>
<path d="M5339 1274 c-1 -5 -1 -18 0 -29 l2 -20 -17 20 c-9 11 -18 16 -20 10
-14 -36 -46 -75 -56 -69 -6 4 -4 -3 5 -17 9 -13 17 -28 17 -34 0 -5 -4 -5 -8
2 -5 8 -28 -35 -61 -112 -29 -69 -55 -125 -58 -125 -2 0 -4 21 -3 48 1 26 1
73 1 106 -1 51 -3 57 -16 46 -8 -7 -15 -25 -15 -41 0 -16 -4 -38 -10 -49 -5
-11 -14 -29 -20 -40 -5 -11 -10 -74 -10 -141 0 -106 2 -120 16 -115 9 3 22 6
30 6 8 0 31 36 53 85 38 81 66 123 77 112 3 -2 -4 -46 -16 -98 -11 -51 -20
-97 -20 -102 0 -4 17 -7 38 -5 l37 3 21 80 c14 55 27 83 40 90 16 8 18 15 10
36 -10 30 0 99 15 99 6 0 8 4 4 9 -3 5 -1 13 5 16 6 4 8 15 5 26 -4 10 -2 19
3 19 14 0 21 47 9 59 -7 7 -6 15 2 25 7 8 10 19 7 24 -3 5 -1 23 4 41 7 26 6
31 -8 31 -9 0 -27 3 -39 6 -13 4 -24 2 -24 -2z m-73 -294 c-6 -29 -15 -50 -23
-50 -7 0 -13 2 -13 4 0 8 39 96 43 96 2 0 -1 -22 -7 -50z"></path>
<path d="M5582 1268 c-7 -7 -12 -27 -12 -44 0 -18 -6 -39 -12 -46 -23 -25 -38
-57 -44 -97 -6 -35 -4 -42 13 -48 16 -6 19 -13 12 -30 -5 -14 -17 -23 -29 -23
-12 0 -20 -7 -21 -17 0 -11 -3 -13 -6 -5 -2 6 -9 12 -15 12 -6 0 -8 -6 -5 -14
3 -8 -1 -17 -9 -20 -8 -3 -14 -13 -14 -23 0 -10 -18 -54 -40 -97 -22 -43 -40
-85 -40 -92 0 -15 57 -19 76 -6 5 4 21 32 33 62 27 64 34 70 83 70 l38 0 -6
-70 -6 -69 39 6 c21 3 39 7 40 7 3 3 23 212 28 306 3 47 8 109 10 139 3 31 1
59 -5 66 -8 9 -8 15 0 20 5 3 10 10 10 16 0 13 -104 11 -118 -3z m25 -198 c-4
-35 -3 -50 6 -51 9 0 9 -2 0 -6 -8 -3 -13 -24 -13 -54 0 -27 -2 -49 -4 -49 -2
0 -12 -3 -20 -6 -12 -5 -15 -2 -10 10 4 12 0 16 -16 16 -17 0 -20 4 -15 18 24
54 41 117 33 120 -7 3 31 51 41 52 2 0 1 -22 -2 -50z m43 -220 c0 -5 -5 -10
-11 -10 -5 0 -7 5 -4 10 3 6 8 10 11 10 2 0 4 -4 4 -10z"></path>
<path d="M1846 1261 c-2 -3 -9 -31 -16 -61 -6 -30 -14 -63 -17 -72 -4 -15 2
-18 35 -18 41 0 52 11 52 51 0 17 6 20 43 17 38 -3 43 -6 52 -36 9 -30 11 -32
45 -26 30 6 53 24 55 44 0 3 6 15 13 27 10 18 10 27 0 42 -6 10 -17 17 -23 14
-7 -2 -15 3 -18 11 -5 12 -21 16 -66 16 l-60 0 -11 -40 c-10 -39 -40 -57 -40
-25 0 8 4 15 9 15 5 0 9 11 9 24 0 21 -5 24 -30 24 -16 -1 -30 -4 -32 -7z
m144 -51 c0 -5 -5 -10 -11 -10 -5 0 -7 5 -4 10 3 6 8 10 11 10 2 0 4 -4 4 -10z"></path>
<path d="M2765 1228 c-4 -24 -10 -47 -13 -52 -3 -5 -6 -23 -7 -40 -2 -17 -16
-78 -31 -136 l-29 -105 -8 65 c-4 36 -8 72 -9 80 0 8 -6 18 -12 22 -8 5 -7 8
2 8 13 0 18 81 5 94 -4 4 -6 27 -4 52 l3 45 -48 -3 -48 -3 -23 -100 c-13 -55
-41 -175 -63 -266 -22 -91 -40 -171 -40 -178 0 -8 13 -11 38 -9 l37 3 41 174
c22 96 43 170 47 165 3 -5 10 -72 17 -149 6 -77 13 -149 15 -160 2 -11 4 -24
4 -28 1 -5 19 -7 42 -5 l41 3 54 215 c30 118 56 226 58 240 2 14 7 40 12 59 8
38 -4 51 -48 51 -23 0 -27 -5 -33 -42z"></path>
<path d="M3159 1260 c-1 -3 -2 -9 -3 -15 0 -5 -7 -21 -15 -34 -10 -19 -10 -25
-1 -31 10 -6 8 -27 -9 -94 -25 -102 -25 -96 -6 -96 8 0 15 -5 15 -11 0 -6 -7
-9 -15 -6 -8 4 -17 2 -20 -3 -4 -6 5 -10 18 -10 14 0 27 7 31 15 3 8 12 15 19
15 9 0 19 22 27 63 7 34 19 77 26 95 l13 33 63 -7 c35 -4 65 -8 67 -10 2 -2
-2 -10 -9 -19 -15 -18 0 -20 19 -2 11 10 13 10 7 0 -4 -7 -3 -13 1 -13 16 0
63 25 63 33 0 5 -14 7 -32 5 -18 -2 -33 2 -35 10 -3 6 3 12 12 12 9 0 14 4 11
9 -3 5 -15 7 -25 4 -13 -3 -23 3 -32 19 -7 12 -12 24 -11 26 13 18 -9 23 -88
20 -49 -2 -90 -5 -91 -8z m26 -79 c3 -5 1 -12 -5 -16 -5 -3 -10 1 -10 9 0 18
6 21 15 7z"></path>
<path d="M3665 1260 c3 -5 0 -7 -8 -4 -21 8 -85 -81 -78 -110 1 -4 -3 -14 -8
-20 -15 -18 -2 -80 24 -112 28 -36 40 -26 39 31 0 25 3 42 8 39 4 -3 8 12 8
33 0 21 6 48 14 59 8 11 17 37 21 57 6 31 4 37 -9 37 -10 0 -14 -4 -11 -10z"></path>
<path d="M3966 1261 c-6 -10 -35 -124 -41 -163 -3 -21 -9 -38 -13 -38 -4 0 -8
-15 -8 -32 -1 -36 -8 -74 -17 -98 -3 -8 -8 -26 -10 -40 -3 -14 -10 -43 -15
-65 -17 -68 -24 -120 -16 -113 4 4 13 3 20 -2 25 -21 54 1 88 68 14 28 15 32
1 32 -17 0 -20 16 -5 25 6 3 10 18 10 33 0 64 8 72 67 72 34 0 52 -4 48 -10
-3 -6 -10 -34 -16 -63 -5 -28 -11 -61 -13 -72 -2 -11 -9 -33 -15 -49 -14 -35
-5 -48 15 -22 14 19 14 19 14 -2 0 -15 6 -22 20 -22 11 0 20 6 20 13 0 6 7 25
16 42 8 16 19 61 24 100 10 79 18 105 32 105 21 0 57 48 51 69 -5 20 -33 31
-33 13 0 -5 -18 -18 -39 -30 -21 -12 -42 -29 -45 -38 -9 -23 -8 -26 7 -18 8 5
8 2 -2 -9 -14 -18 -22 -22 -19 -9 0 4 -2 14 -6 23 -6 14 -13 15 -41 6 -28 -8
-42 -7 -75 8 -47 21 -51 44 -15 71 14 10 23 25 20 32 -8 22 14 52 39 52 21 0
22 4 20 48 -1 26 3 53 9 60 5 7 7 16 3 19 -9 9 -76 12 -80 4z"></path>
<path d="M4140 1218 c-7 -29 -17 -58 -22 -65 -6 -8 -6 -19 1 -30 6 -10 11 -12
11 -5 0 14 70 17 70 2 0 -5 5 -10 10 -10 16 0 33 51 31 88 -2 18 2 32 9 32 8
0 8 6 0 20 -8 15 -21 20 -54 20 l-44 0 -12 -52z"></path>
<path d="M4405 1240 c-4 -16 -4 -33 -1 -38 3 -5 -2 -18 -12 -28 -9 -10 -23
-31 -31 -45 -22 -44 -23 -134 0 -98 12 20 21 5 14 -24 -5 -18 -15 -27 -39 -31
-27 -5 -36 -14 -51 -49 -10 -23 -35 -79 -57 -123 -45 -95 -47 -109 -15 -100
12 3 31 6 43 6 15 0 26 14 44 58 28 67 33 72 84 72 l38 0 -7 -65 -7 -65 40 0
c45 0 44 -3 57 140 3 36 8 83 10 105 2 22 7 93 9 158 4 88 2 117 -7 117 -7 1
-5 6 5 14 26 19 12 26 -53 26 -56 0 -58 -1 -64 -30z m33 -227 c-2 -72 -7 -101
-18 -110 -21 -17 -35 -16 -20 2 11 13 8 15 -15 15 -22 0 -26 3 -20 18 30 68
43 118 33 129 -8 10 -6 13 5 13 8 0 17 7 21 15 13 35 18 9 14 -82z m-108 -57
c0 -2 -7 -7 -16 -10 -8 -3 -12 -2 -9 4 6 10 25 14 25 6z m149 -111 c3 -17 2
-17 -13 -3 -19 20 -21 31 -3 26 6 -3 14 -13 16 -23z"></path>
<path d="M1481 1223 c-33 -126 -53 -210 -54 -228 0 -11 -4 -24 -8 -30 -4 -5
-10 -26 -14 -45 -3 -19 -9 -43 -11 -52 -4 -15 1 -18 28 -18 18 0 38 4 43 8 17
12 44 71 35 77 -4 3 -10 -1 -13 -7 -2 -7 -8 -9 -13 -5 -5 4 -2 12 6 17 21 14
40 12 38 -2 -4 -18 57 -22 94 -7 34 14 59 45 51 65 -3 10 0 12 10 9 10 -4 17
2 21 19 3 14 11 26 16 26 5 0 8 16 5 35 -2 19 0 35 5 35 6 0 10 11 10 24 0 15
7 26 18 29 12 3 13 5 2 6 -8 0 -21 14 -28 29 -17 40 -50 52 -147 52 l-84 0
-10 -37z m71 -25 c-7 -7 -12 -8 -12 -2 0 14 12 26 19 19 2 -3 -1 -11 -7 -17z
m69 -24 c18 -9 28 -21 26 -28 -3 -8 -9 -34 -12 -60 -4 -25 -16 -57 -27 -71
-11 -14 -15 -25 -9 -25 6 0 11 -5 11 -10 0 -6 -8 -5 -20 2 -15 10 -22 10 -32
0 -16 -16 -35 -15 -42 3 -10 27 25 168 46 188 24 21 22 21 59 1z m-111 -208
c0 -2 -7 -6 -15 -10 -8 -3 -15 -1 -15 4 0 6 7 10 15 10 8 0 15 -2 15 -4z"></path>
<path d="M2289 1239 c-6 -12 -9 -29 -6 -39 3 -10 -4 -28 -15 -39 -22 -24 -48
-93 -48 -127 0 -13 -5 -24 -12 -24 -6 0 -8 -3 -5 -6 4 -4 18 1 33 11 27 17 27
17 21 -6 -4 -13 -7 -27 -7 -31 0 -4 -16 -10 -35 -14 -19 -3 -37 -10 -40 -14
-3 -5 -15 -6 -27 -2 -14 3 -19 2 -14 -6 4 -7 13 -12 21 -12 16 0 7 -26 -51
-147 -47 -98 -46 -101 23 -87 25 5 34 15 53 62 28 67 33 72 84 72 l39 0 -7
-65 -7 -65 40 0 c46 0 42 -15 61 215 16 186 18 288 8 302 -5 7 -5 14 2 18 24
15 6 25 -45 25 -45 0 -56 -4 -66 -21z m30 -236 c-2 -76 -6 -101 -18 -110 -22
-17 -32 -16 -25 2 4 11 0 15 -16 15 -17 0 -20 4 -15 18 29 65 42 118 33 130
-8 8 -6 12 5 12 8 0 17 7 21 15 12 33 16 11 15 -82z m41 -170 c0 -12 -2 -12
-15 1 -8 8 -15 17 -15 20 0 3 7 3 15 0 8 -4 15 -13 15 -21z"></path>
<path d="M2927 1223 c-3 -21 -9 -47 -12 -58 -5 -18 -1 -20 36 -20 46 0 46 1
62 83 l7 32 -44 0 c-42 0 -43 -1 -49 -37z"></path>
<path d="M3107 1244 c2 -7 11 -10 19 -7 19 7 18 10 -5 16 -13 3 -18 1 -14 -9z"></path>
<path d="M5455 1250 c3 -5 11 -10 16 -10 6 0 7 5 4 10 -3 6 -11 10 -16 10 -6
0 -7 -4 -4 -10z"></path>
<path d="M2882 1225 c0 -16 2 -22 5 -12 2 9 2 23 0 30 -3 6 -5 -1 -5 -18z"></path>
<path d="M3100 1205 c7 -9 15 -13 17 -11 7 7 -7 26 -19 26 -6 0 -6 -6 2 -15z"></path>
<path d="M3458 1202 c-10 -2 -18 -7 -18 -11 0 -11 43 -7 65 6 19 12 19 12 -5
11 -14 -1 -33 -4 -42 -6z"></path>
<path d="M3070 1189 c0 -5 5 -7 10 -4 6 3 10 8 10 11 0 2 -4 4 -10 4 -5 0 -10
-5 -10 -11z"></path>
<path d="M2900 1065 c0 -8 4 -15 9 -15 5 0 11 7 15 15 3 9 0 15 -9 15 -8 0
-15 -7 -15 -15z"></path>
<path d="M4830 1065 c-7 -8 -9 -15 -4 -16 5 0 -10 -9 -33 -19 -24 -11 -43 -24
-43 -30 0 -6 6 -8 13 -4 8 5 8 2 -2 -9 -17 -21 -31 -22 -31 -2 0 9 -6 12 -15
9 -8 -4 -17 1 -21 10 -3 9 -10 16 -16 16 -5 0 -6 -5 -2 -11 4 -8 -1 -9 -17 -4
-23 7 -23 6 -5 -7 27 -21 13 -40 -20 -28 -18 7 -26 6 -29 -3 -13 -35 -61 -243
-58 -249 7 -13 60 -9 71 5 6 7 21 56 33 110 l23 98 30 -3 31 -3 3 -102 c3
-100 3 -103 27 -109 51 -13 55 -4 55 127 l0 121 35 41 c42 48 46 77 11 77 -13
0 -29 -7 -36 -15z m-43 -117 c-3 -8 -6 -5 -6 6 -1 11 2 17 5 13 3 -3 4 -12 1
-19z m-97 2 c0 -5 -4 -10 -10 -10 -5 0 -10 5 -10 10 0 6 5 10 10 10 6 0 10 -4
10 -10z m-80 -124 c0 -3 -4 -8 -10 -11 -5 -3 -10 -1 -10 4 0 6 5 11 10 11 6 0
10 -2 10 -4z"></path>
<path d="M1998 1053 c-6 -7 -7 -13 -2 -13 9 0 -14 -25 -24 -25 -29 -3 -53 -19
-47 -33 3 -8 0 -19 -7 -24 -21 -13 -26 -9 -20 15 5 19 3 20 -11 9 -13 -11 -17
-10 -27 7 -15 29 -26 26 -26 -6 1 -24 -3 -28 -26 -28 -15 -1 -30 -4 -34 -7 -3
-4 -17 -53 -30 -110 -14 -57 -27 -111 -30 -120 -4 -15 1 -18 35 -18 38 0 41 2
50 38 6 20 11 42 11 47 0 6 8 36 17 67 16 52 21 58 45 58 l27 0 3 -102 3 -103
43 -3 42 -3 0 121 c0 131 -4 119 60 197 6 7 10 21 10 32 0 16 -6 20 -26 19
-14 -2 -30 -8 -36 -15z m-138 -113 c0 -5 -5 -10 -11 -10 -5 0 -7 5 -4 10 3 6
8 10 11 10 2 0 4 -4 4 -10z m-80 -130 c0 -5 -7 -10 -16 -10 -8 0 -12 5 -9 10
3 6 10 10 16 10 5 0 9 -4 9 -10z"></path>
<path d="M2939 1026 c-20 -18 -25 -32 -23 -60 2 -26 -1 -36 -11 -36 -8 0 -15
5 -15 10 0 11 -29 14 -31 3 -1 -5 -2 -28 -3 -53 -1 -25 -6 -52 -11 -60 -16
-24 -35 -83 -35 -107 0 -20 5 -23 39 -23 40 0 51 11 51 49 0 10 9 29 19 43 11
13 19 35 20 48 0 14 3 51 7 83 4 39 3 57 -5 57 -6 0 -11 7 -11 15 0 9 9 15 25
15 18 0 25 5 25 20 0 26 -10 25 -41 -4z"></path>
<path d="M3838 1043 c-10 -2 -18 -9 -18 -14 0 -6 7 -6 19 0 10 6 22 7 26 3 5
-4 5 -1 1 6 -4 6 -8 11 -9 11 -1 -1 -10 -3 -19 -6z"></path>
<path d="M5485 1020 c-3 -5 -2 -10 4 -10 5 0 13 5 16 10 3 6 2 10 -4 10 -5 0
-13 -4 -16 -10z"></path>
<path d="M3693 998 c-20 -25 -22 -58 -5 -68 12 -6 13 -9 3 -10 -9 0 -11 -8 -7
-26 11 -42 -10 -88 -48 -106 -25 -12 -35 -24 -38 -47 -4 -29 -3 -31 28 -31 43
0 100 49 126 107 22 49 16 110 -14 161 -21 35 -30 39 -45 20z"></path>
<path d="M3637 975 c-4 -8 -2 -17 3 -20 6 -4 10 3 10 14 0 25 -6 27 -13 6z"></path>
<path d="M3143 936 c18 -14 18 -14 -1 -20 -11 -4 -26 -4 -34 -1 -11 5 -19 -10
-33 -60 -15 -55 -15 -68 -4 -82 10 -12 10 -15 1 -9 -8 5 -16 -2 -22 -19 -16
-41 -13 -45 29 -45 41 0 44 3 55 60 3 14 12 52 20 85 22 86 21 105 -6 105 -22
-1 -22 -1 -5 -14z"></path>
<path d="M3525 861 c-26 -5 -30 -11 -33 -44 -2 -21 1 -37 7 -37 6 0 11 -8 11
-19 0 -22 25 -45 39 -36 23 13 34 148 12 144 -3 -1 -19 -4 -36 -8z"></path>
<path d="M1379 782 c-5 -13 -9 -37 -9 -53 0 -26 3 -29 34 -29 33 0 35 2 45 50
6 28 11 53 11 56 0 2 -16 4 -36 2 -27 -2 -38 -8 -45 -26z"></path>
<path d="M4928 645 c-2 -2 -16 -5 -32 -8 -37 -4 -52 -38 -28 -60 23 -21 81
-34 117 -27 23 4 31 11 33 32 2 18 -3 30 -17 37 -30 17 -69 30 -73 26z"></path>
<path d="M2070 623 c-8 -2 -22 -7 -30 -10 -8 -4 -18 -6 -22 -5 -4 1 -4 -8 1
-21 17 -49 108 -69 139 -30 17 23 15 29 -10 53 -21 19 -47 24 -78 13z"></path>
<path d="M1675 611 c-11 -5 -27 -17 -36 -27 -16 -18 -65 -158 -70 -199 -4 -33
11 -65 31 -65 26 0 77 45 96 85 9 19 25 37 36 41 35 11 88 65 88 90 0 55 -85
99 -145 75z"></path>
<path d="M3313 610 c-32 -13 -47 -47 -34 -76 9 -21 14 -22 39 -13 45 15 79 56
66 77 -13 20 -40 25 -71 12z"></path>
<path d="M5697 609 c-26 -15 -57 -86 -57 -132 0 -75 -63 -162 -111 -155 -26 3
-27 9 -18 174 5 85 -12 114 -67 114 -27 0 -43 -11 -96 -65 -77 -80 -97 -83
-136 -20 -23 38 -32 45 -59 45 -22 0 -36 -6 -43 -19 -13 -26 -13 -283 1 -313
5 -13 26 -35 46 -48 53 -37 178 -41 271 -10 59 20 78 22 174 16 65 -4 115 -3
126 3 25 13 37 60 57 216 17 133 13 177 -18 197 -17 11 -49 9 -70 -3z"></path>
<path d="M4520 590 c-27 -27 -36 -53 -45 -123 -5 -39 -16 -70 -35 -96 -35 -48
-70 -115 -70 -134 0 -25 25 -37 111 -52 116 -20 148 -19 212 10 48 21 66 23
121 18 60 -5 66 -4 90 20 48 48 28 157 -30 157 -26 0 -89 -29 -136 -61 -34
-25 -60 -24 -84 2 -16 18 -19 38 -20 130 -1 90 -5 113 -19 129 -23 26 -70 25
-95 0z"></path>
<path d="M2408 590 c-20 -12 -45 -78 -53 -145 -4 -33 -19 -69 -42 -104 -22
-32 -38 -70 -41 -96 -6 -55 9 -64 122 -72 65 -5 94 -2 137 13 74 25 118 22
197 -14 79 -35 101 -34 193 12 46 23 65 38 67 54 2 13 -3 25 -12 28 -9 3 -26
22 -38 42 -22 36 -27 97 -16 217 3 30 2 30 -57 36 -33 4 -79 12 -103 19 -31 9
-49 10 -66 2 -30 -13 -71 -99 -91 -189 -19 -86 -31 -113 -49 -113 -21 0 -28
33 -35 162 -5 94 -10 120 -25 137 -20 22 -60 27 -88 11z"></path>
<path d="M1967 352 c-40 -24 -70 -84 -58 -115 11 -28 23 -34 89 -43 45 -6 51
-4 70 21 22 28 30 102 16 139 -8 22 -81 21 -117 -2z"></path>
<path d="M4037 272 c-24 -26 -21 -42 7 -42 28 0 42 28 23 47 -11 11 -16 11
-30 -5z"></path>
<path d="M4177 273 c-13 -13 -7 -41 11 -45 22 -6 46 18 38 38 -5 14 -37 19
-49 7z"></path>
</g>
</svg>